#!OML:ASF F:\VICON\USERDATA\INSTALL\rory3\rory3.ASF
:FULLY-SPECIFIED
:DEGREES
18
root 0.8532004857847533 17.721810862755937 -15.393888330229684 0.6113183735702541 -7.219714472190406 -8.965483122967475
lfemur -25.77368816269651 -5.691877617218306 -7.084758304812089
ltibia 12.623810470481157
lfoot -6.506939132682452 13.109880335571667
ltoes -0.467492432958148
rfemur 11.399383798238333 8.370176087144014 35.485685581140245
rtibia 23.550307312614457
rfoot -17.988289903091015 -5.057512377338886
rtoes -6.620394004244959
lowerback 8.691004969335857 2.9330265492502834 9.205021773455291
upperback -0.2961010824946338 4.959955254815561 2.3464130004333574
thorax -4.627068061223091 2.252445786276577 -3.285372793834648
lowerneck -16.812697477787427 -2.842611581485054 -1.278770204126722
upperneck 21.77109099264765 -3.6821302754967338 0.25725344875684575
head 9.702821473988417 -1.783680136979231 -0.18316458535171357
lclavicle -1.9532406450981722e-15 9.067692723530645e-16
lhumerus -38.73858630070016 6.998758103680249 81.50190922320465
lradius 21.81500737377341
lwrist 2.181877801554387
lhand -26.959001185364382 19.65451035906941
lfingers 7.12502
lthumb -0.38045118546129103 49.633910334165165
rclavicle -1.9532406450981722e-15 9.067692723530645e-16
rhumerus -21.923517347229797 -8.062566419416376 -82.99508682301622
rradius 29.725085087254566
rwrist 1.1132425232620928
rhand -18.3558928462036 25.061889232939414
rfingers 7.12502
rthumb 7.92684715323144 -4.769470660704259
19
root 0.9375104698111061 17.818605433684287 -14.527988716893104 0.022008424447381714 -7.2347544258143035 -7.496886733514476
lfemur -24.746088857474536 -3.71945517898686 -10.409513518293856
ltibia 15.30130899622429
lfoot 0.23016691159080604 5.892660538807225
ltoes -1.708382635593522
rfemur 12.902182781693742 7.801058114359773 33.329588753352105
rtibia 26.20290580675723
rfoot -14.400793648676537 -2.7755366280298945
rtoes -10.65697757961516
lowerback 8.540246855089347 2.9138266637801085 7.867064839450532
upperback -0.20208064196019188 4.766205999680808 2.1079354099589587
thorax -4.547449874083488 2.1937262746363877 -2.767044933570514
lowerneck -16.94959562751141 -2.8543511694818737 -1.4385578115415902
upperneck 22.056087608310786 -3.615011714522046 0.09139802747715031
head 9.828907516377091 -1.783740133640304 -0.2104246855617428
lclavicle -1.9532406683098537e-15 9.067691698370563e-16
lhumerus -39.17258561642481 8.868084557357797 80.7498134767226
lradius 20.294110612158274
lwrist 1.1092113278760438
lhand -27.20779988368733 18.48601356273374
lfingers 7.12502
lthumb -0.6207718835770943 48.46481353897279
rclavicle -1.9532406683098537e-15 9.067691698370563e-16
rhumerus -22.889614665593175 -9.356964269179368 -82.56978827452367
rradius 29.250086535557877
rwrist 1.5441814525240787
rhand -19.79068051460789 23.016497377356664
rfingers 7.12502
rthumb 6.541909487886906 -6.862472300716443
20
root 0.9908761937594666 17.918499830747738 -13.649489109183074 -1.037329615179502 -5.646659322748793 -4.494634114558265
lfemur -22.277190526740355 -3.7424850906960083 -14.944306989731466
ltibia 16.290208451726564
lfoot 3.032019602933592 0.12930668666174516
ltoes -3.0354207134481928
rfemur 11.890783465838844 6.226153724217706 29.764293998882003
rtibia 32.99190195270277
rfoot -7.956000377470873 -1.7821084785123595
rtoes -9.703399097331491
lowerback 8.386508778117612 2.6323183430139583 4.809441846146558
upperback -0.31018469910425933 4.050038752971878 1.373542830101535
thorax -4.793894262686292 1.8981187331521456 -1.7586790962573415
lowerneck -16.252005055944924 -3.0290950368110257 -1.45551755759426
upperneck 22.235285480334767 -3.8949857118655067 0.19302229251415648
head 9.76651947462414 -1.9058433383668243 -0.19979703635473708
lclavicle -1.953240616762468e-15 9.067692386692542e-16
lhumerus -39.319885384181084 10.017582376631207 79.69281945460912
lradius 18.120415240521236
lwrist -0.6389309252193502
lhand -27.039500764202796 18.007514874632243
lfingers 7.12502
lthumb -0.4582557639722059 47.986814849295314
rclavicle -1.953240616762468e-15 9.067692386692542e-16
rhumerus -24.533710102008907 -12.342309309962666 -81.76359102600568
rradius 27.66969135429171
rwrist 2.5871188611760525
rhand -20.067978131313016 22.673998741130454
rfingers 7.12502
rthumb 6.274181872346501 -7.21312090013559
21
root 0.95728218906764 17.92744603323557 -5.987307345017937 -2.0326454119217 -5.11003969734666 -2.9997384988955282
lfemur -20.040524334708323 -2.2193688826617812 -19.805842417847312
ltibia 25.085619044565103
lfoot -3.610277406349887 -3.8729418809574074
ltoes -4.159306288972268
rfemur 4.4789046056617 4.592044287947581 26.099573407129302
rtibia 44.53184753827868
rfoot 3.248567308212497 3.2936654461196397
rtoes 0.28469786960325827
lowerback 9.19357447592799 2.473321663873725 3.201232091271887
upperback -0.06489030943656926 3.6684466423575004 0.7527070738601161
thorax -5.0547760754623 1.7453051637601225 -1.4717917777387632
lowerneck -16.362293778877508 -3.213038871310532 -1.4643383952641362
upperneck 21.883144079656688 -4.1596571500464306 0.47201469732115914
head 9.704309872192193 -2.0005048348014216 -0.12565265535915496
lclavicle -2.7586650466209266e-15 1.6344440534249298e-16
lhumerus -37.93211397109753 8.053714032907981 80.31018210932582
lradius 18.20662404145012
lwrist -0.19480984796547496
lhand -24.655603606021337 23.310909259133094
lfingers 7.12502
lthumb 1.8442336994770623 53.29126038658269
rclavicle -2.7586650466209266e-15 1.6344440534249298e-16
rhumerus -25.718347313705546 -14.343741510899715 -80.94955134650228
rradius 27.390384402951256
rwrist 1.8602243542301613
rhand -18.596566043677072 22.42903807247681
rfingers 7.12502
rthumb 7.6944707339925165 -7.405286268760706
22
root 0.973716425916624 17.986055494358705 -5.097805359427145 -2.6185163600282397 -4.957180227047562 -1.2478177451825097
lfemur -16.493850226834226 -2.015164149113386 -21.916366849753718
ltibia 28.160840215509776
lfoot -5.121276699498756 -2.436098667176479
ltoes -1.6445088376112191
rfemur -1.1769753572974562 3.7827540141752736 23.989662997061856
rtibia 56.468777777816314
rfoot 11.739953859775486 2.0951723499212846
rtoes 8.65777155766876
lowerback 9.7240900389487 2.485218517921263 1.9014837247517242
upperback 0.045812115356604954 3.531865350133858 0.4163428912771212
thorax -5.221358430996066 1.7024962418859868 -0.8931606780325626
lowerneck -16.433690011130533 -3.1518946094988953 -1.4562624920094143
upperneck 21.83320799411608 -4.086885058969747 0.5862071074685148
head 9.707131432581281 -1.9630627488905452 -0.08076897336594141
lclavicle -1.7778121280460412e-15 1.0675732027226133e-15
lhumerus -36.94382288226228 7.719078374181302 80.8773768885017
lradius 19.289053907382314
lwrist 1.174393622330236
lhand -24.958475195288504 23.82277600219477
lfingers 7.12502
lthumb 1.5517292000497325 53.80091287836911
rclavicle -1.7778121280460412e-15 1.0675732027226135e-15
rhumerus -26.328534224099712 -15.223388171410482 -80.47023092197621
rradius 26.672988670960088
rwrist 3.492264040699596
rhand -17.86434712462494 21.86780191036938
rfingers 7.12502
rthumb 8.401088559614053 -7.940166856747224
